ffmpeg started on 2025-06-05 at 18:56:06
Report written to "D:\Convert\FFMetrics\reports\psnr_report-6.txt"
Log level: 32
Command line:
ffmpeg -hide_banner -nostdin -i "G:\\\xc0\xed\xe8\xec\xe5\\\xce\xed\xe3\xee\xe8\xed\xe3\xe8\\!_36_\xce\xf1\xe5\xed\xfc_2024\\DreamCast\\\xca\xee\xec\xef\xe0\xed\xe8\xff \xab\xcc\xe0\xe3\xe8-\xcb\xfe\xec\xfc\xe5\xf0\xbb\\[DC] Kabushikigaisha Magilumiere - 01_Telegram_HEVC.mkv" -i "G:\\\xc0\xed\xe8\xec\xe5\\\xce\xed\xe3\xee\xe8\xed\xe3\xe8\\!_36_\xce\xf1\xe5\xed\xfc_2024\\DreamCast\\\xca\xee\xec\xef\xe0\xed\xe8\xff \xab\xcc\xe0\xe3\xe8-\xcb\xfe\xec\xfc\xe5\xf0\xbb\\[DC] Kabushikigaisha Magilumiere - 01_Telegram.mp4" -lavfi "[0:v]settb=AVTB,setpts=PTS-STARTPTS,format=pix_fmts=yuv420p10,fps=24000/1001,scale=1920:1080:flags=bicubic[main];[1:v]settb=AVTB,setpts=PTS-STARTPTS,format=pix_fmts=yuv420p,fps=24000/1001,scale=1920:1080:flags=bicubic[ref];[main][ref]psnr=eof_action=endall:stats_file='D\\:/Convert/FFMetrics/logs/psnr_logfile-6.txt'" -f null -
Input #0, matroska,webm, from 'G:\Аниме\Онгоинги\!_36_Осень_2024\DreamCast\Компания «Маги-Люмьер»\[DC] Kabushikigaisha Magilumiere - 01_Telegram_HEVC.mkv':
  Metadata:
    COMPATIBLE_BRANDS: isomiso2avc1mp41
    MAJOR_BRAND     : isom
    MINOR_VERSION   : 512
    ENCODER         : Lavf61.7.100
  Duration: 00:24:06.66, start: -0.021000, bitrate: 2065 kb/s
  Stream #0:0: Video: hevc (Main 10), yuv420p10le(tv, bt709, progressive), 1920x1080 [SAR 1:1 DAR 16:9], 23.98 fps, 23.98 tbr, 1k tbn (default)
      Metadata:
        HANDLER_NAME    : VideoHandler
        VENDOR_ID       : [0][0][0][0]
        ENCODER         : Lavc61.19.100 libx265
        BPS             : 1868125
        DURATION        : 00:24:06.569708333
        NUMBER_OF_FRAMES: 34683
        NUMBER_OF_BYTES : 337796537
        _STATISTICS_WRITING_APP: mkvpropedit v66.0.0 ('Josie') 64-bit
        _STATISTICS_WRITING_DATE_UTC: 2025-05-30 16:49:57
        _STATISTICS_TAGS: BPS DURATION NUMBER_OF_FRAMES NUMBER_OF_BYTES
  Stream #0:1: Audio: aac (LC), 48000 Hz, stereo, fltp (default)
      Metadata:
        HANDLER_NAME    : SoundHandler
        VENDOR_ID       : [0][0][0][0]
        ENCODER         : Lavc61.19.100 aac
        BPS             : 193752
        DURATION        : 00:24:06.656000000
        NUMBER_OF_FRAMES: 67813
        NUMBER_OF_BYTES : 35036741
        _STATISTICS_WRITING_APP: mkvpropedit v66.0.0 ('Josie') 64-bit
        _STATISTICS_WRITING_DATE_UTC: 2025-05-30 16:49:57
        _STATISTICS_TAGS: BPS DURATION NUMBER_OF_FRAMES NUMBER_OF_BYTES
Input #1, mov,mp4,m4a,3gp,3g2,mj2, from 'G:\Аниме\Онгоинги\!_36_Осень_2024\DreamCast\Компания «Маги-Люмьер»\[DC] Kabushikigaisha Magilumiere - 01_Telegram.mp4':
  Metadata:
    major_brand     : isom
    minor_version   : 512
    compatible_brands: isomiso2avc1mp41
    encoder         : Lavf61.1.100
  Duration: 00:24:06.63, start: 0.000000, bitrate: 3739 kb/s
  Stream #1:0[0x1](und): Video: h264 (High) (avc1 / 0x31637661), yuv420p(tv, bt709, progressive), 1920x1080 [SAR 1:1 DAR 16:9], 3591 kb/s, 23.98 fps, 23.98 tbr, 24k tbn (default)
      Metadata:
        handler_name    : VideoHandler
        vendor_id       : [0][0][0][0]
        encoder         : Lavc61.3.100 h264_qsv
  Stream #1:1[0x2](und): Audio: aac (HE-AACv2) (mp4a / 0x6134706D), 48000 Hz, stereo, fltp, 144 kb/s (default)
      Metadata:
        handler_name    : SoundHandler
        vendor_id       : [0][0][0][0]
Stream mapping:
  Stream #0:0 (hevc) -> settb:default
  Stream #1:0 (h264) -> settb:default
  psnr:default -> Stream #0:0 (wrapped_avframe)
  Stream #0:1 -> #0:1 (aac (native) -> pcm_s16le (native))
Output #0, null, to 'pipe:':
  Metadata:
    COMPATIBLE_BRANDS: isomiso2avc1mp41
    MAJOR_BRAND     : isom
    MINOR_VERSION   : 512
    encoder         : Lavf61.7.100
  Stream #0:0: Video: wrapped_avframe, yuv420p10le(tv, bt709, progressive), 1920x1080 [SAR 1:1 DAR 16:9], q=2-31, 200 kb/s, 23.98 fps, 23.98 tbn
      Metadata:
        encoder         : Lavc61.19.100 wrapped_avframe
  Stream #0:1: Audio: pcm_s16le, 48000 Hz, stereo, s16, 1536 kb/s (default)
      Metadata:
        HANDLER_NAME    : SoundHandler
        VENDOR_ID       : [0][0][0][0]
        _STATISTICS_TAGS: BPS DURATION NUMBER_OF_FRAMES NUMBER_OF_BYTES
        BPS             : 193752
        DURATION        : 00:24:06.656000000
        NUMBER_OF_FRAMES: 67813
        NUMBER_OF_BYTES : 35036741
        _STATISTICS_WRITING_APP: mkvpropedit v66.0.0 ('Josie') 64-bit
        _STATISTICS_WRITING_DATE_UTC: 2025-05-30 16:49:57
        encoder         : Lavc61.19.100 pcm_s16le
frame=  164 fps=0.0 q=-0.0 size=N/A time=00:00:06.84 bitrate=N/A speed=13.3x    frame=  380 fps=364 q=-0.0 size=N/A time=00:00:15.84 bitrate=N/A speed=15.2x    frame=  548 fps=353 q=-0.0 size=N/A time=00:00:22.85 bitrate=N/A speed=14.7x    frame=  716 fps=345 q=-0.0 size=N/A time=00:00:29.86 bitrate=N/A speed=14.4x    frame=  897 fps=347 q=-0.0 size=N/A time=00:00:37.41 bitrate=N/A speed=14.5x    frame= 1068 fps=345 q=-0.0 size=N/A time=00:00:44.54 bitrate=N/A speed=14.4x    frame= 1241 fps=344 q=-0.0 size=N/A time=00:00:51.76 bitrate=N/A speed=14.3x    frame= 1428 fps=345 q=-0.0 size=N/A time=00:00:59.55 bitrate=N/A speed=14.4x    frame= 1610 fps=347 q=-0.0 size=N/A time=00:01:07.15 bitrate=N/A speed=14.5x    frame= 1787 fps=346 q=-0.0 size=N/A time=00:01:14.53 bitrate=N/A speed=14.4x    frame= 1955 fps=344 q=-0.0 size=N/A time=00:01:21.53 bitrate=N/A speed=14.4x    frame= 2147 fps=346 q=-0.0 size=N/A time=00:01:29.54 bitrate=N/A speed=14.4x    frame= 2330 fps=347 q=-0.0 size=N/A time=00:01:37.18 bitrate=N/A speed=14.5x    frame= 2517 fps=349 q=-0.0 size=N/A time=00:01:44.97 bitrate=N/A speed=14.5x    frame= 2736 fps=354 q=-0.0 size=N/A time=00:01:54.11 bitrate=N/A speed=14.7x    frame= 2980 fps=361 q=-0.0 size=N/A time=00:02:04.29 bitrate=N/A speed=  15x    frame= 3191 fps=364 q=-0.0 size=N/A time=00:02:13.09 bitrate=N/A speed=15.2x    frame= 3386 fps=364 q=-0.0 size=N/A time=00:02:21.22 bitrate=N/A speed=15.2x    frame= 3571 fps=364 q=-0.0 size=N/A time=00:02:28.94 bitrate=N/A speed=15.2x    frame= 3752 fps=364 q=-0.0 size=N/A time=00:02:36.48 bitrate=N/A speed=15.2x    frame= 3945 fps=364 q=-0.0 size=N/A time=00:02:44.53 bitrate=N/A speed=15.2x    frame= 4081 fps=360 q=-0.0 size=N/A time=00:02:50.21 bitrate=N/A speed=  15x    frame= 4248 fps=358 q=-0.0 size=N/A time=00:02:57.17 bitrate=N/A speed=14.9x    frame= 4459 fps=360 q=-0.0 size=N/A time=00:03:05.97 bitrate=N/A speed=  15x    frame= 4657 fps=361 q=-0.0 size=N/A time=00:03:14.23 bitrate=N/A speed=15.1x    frame= 4856 fps=362 q=-0.0 size=N/A time=00:03:22.53 bitrate=N/A speed=15.1x    frame= 5028 fps=361 q=-0.0 size=N/A time=00:03:29.70 bitrate=N/A speed=15.1x    frame= 5181 fps=359 q=-0.0 size=N/A time=00:03:36.09 bitrate=N/A speed=  15x    frame= 5341 fps=357 q=-0.0 size=N/A time=00:03:42.76 bitrate=N/A speed=14.9x    frame= 5527 fps=357 q=-0.0 size=N/A time=00:03:50.52 bitrate=N/A speed=14.9x    frame= 5718 fps=357 q=-0.0 size=N/A time=00:03:58.48 bitrate=N/A speed=14.9x    frame= 5943 fps=360 q=-0.0 size=N/A time=00:04:07.87 bitrate=N/A speed=  15x    frame= 6160 fps=362 q=-0.0 size=N/A time=00:04:16.92 bitrate=N/A speed=15.1x    frame= 6410 fps=365 q=-0.0 size=N/A time=00:04:27.35 bitrate=N/A speed=15.2x    frame= 6653 fps=368 q=-0.0 size=N/A time=00:04:37.48 bitrate=N/A speed=15.4x    frame= 6909 fps=372 q=-0.0 size=N/A time=00:04:48.16 bitrate=N/A speed=15.5x    frame= 7137 fps=374 q=-0.0 size=N/A time=00:04:57.67 bitrate=N/A speed=15.6x    frame= 7360 fps=375 q=-0.0 size=N/A time=00:05:06.97 bitrate=N/A speed=15.6x    frame= 7618 fps=379 q=-0.0 size=N/A time=00:05:17.73 bitrate=N/A speed=15.8x    frame= 7877 fps=381 q=-0.0 size=N/A time=00:05:28.53 bitrate=N/A speed=15.9x    frame= 8127 fps=384 q=-0.0 size=N/A time=00:05:38.96 bitrate=N/A speed=  16x    frame= 8381 fps=387 q=-0.0 size=N/A time=00:05:49.55 bitrate=N/A speed=16.1x    frame= 8631 fps=389 q=-0.0 size=N/A time=00:05:59.98 bitrate=N/A speed=16.2x    frame= 8877 fps=391 q=-0.0 size=N/A time=00:06:10.24 bitrate=N/A speed=16.3x    frame= 9139 fps=393 q=-0.0 size=N/A time=00:06:21.17 bitrate=N/A speed=16.4x    frame= 9373 fps=395 q=-0.0 size=N/A time=00:06:30.93 bitrate=N/A speed=16.5x    frame= 9605 fps=396 q=-0.0 size=N/A time=00:06:40.60 bitrate=N/A speed=16.5x    frame= 9854 fps=398 q=-0.0 size=N/A time=00:06:50.99 bitrate=N/A speed=16.6x    frame=10099 fps=399 q=-0.0 size=N/A time=00:07:01.21 bitrate=N/A speed=16.7x    frame=10383 fps=402 q=-0.0 size=N/A time=00:07:13.05 bitrate=N/A speed=16.8x    frame=10648 fps=405 q=-0.0 size=N/A time=00:07:24.11 bitrate=N/A speed=16.9x    frame=10895 fps=406 q=-0.0 size=N/A time=00:07:34.41 bitrate=N/A speed=16.9x    frame=11147 fps=408 q=-0.0 size=N/A time=00:07:44.92 bitrate=N/A speed=  17x    frame=11417 fps=410 q=-0.0 size=N/A time=00:07:56.18 bitrate=N/A speed=17.1x    frame=11679 fps=411 q=-0.0 size=N/A time=00:08:07.11 bitrate=N/A speed=17.2x    frame=11948 fps=413 q=-0.0 size=N/A time=00:08:18.33 bitrate=N/A speed=17.2x    frame=12200 fps=414 q=-0.0 size=N/A time=00:08:28.88 bitrate=N/A speed=17.3x    frame=12451 fps=416 q=-0.0 size=N/A time=00:08:39.31 bitrate=N/A speed=17.3x    frame=12700 fps=417 q=-0.0 size=N/A time=00:08:49.69 bitrate=N/A speed=17.4x    frame=12965 fps=418 q=-0.0 size=N/A time=00:09:00.74 bitrate=N/A speed=17.5x    frame=13213 fps=419 q=-0.0 size=N/A time=00:09:11.09 bitrate=N/A speed=17.5x    frame=13466 fps=421 q=-0.0 size=N/A time=00:09:21.64 bitrate=N/A speed=17.5x    frame=13730 fps=422 q=-0.0 size=N/A time=00:09:32.65 bitrate=N/A speed=17.6x    frame=13971 fps=423 q=-0.0 size=N/A time=00:09:42.70 bitrate=N/A speed=17.6x    frame=14240 fps=424 q=-0.0 size=N/A time=00:09:53.92 bitrate=N/A speed=17.7x    frame=14494 fps=425 q=-0.0 size=N/A time=00:10:04.52 bitrate=N/A speed=17.7x    frame=14732 fps=426 q=-0.0 size=N/A time=00:10:14.44 bitrate=N/A speed=17.8x    frame=14988 fps=427 q=-0.0 size=N/A time=00:10:25.12 bitrate=N/A speed=17.8x    frame=15207 fps=427 q=-0.0 size=N/A time=00:10:34.25 bitrate=N/A speed=17.8x    frame=15408 fps=426 q=-0.0 size=N/A time=00:10:42.64 bitrate=N/A speed=17.8x    frame=15640 fps=427 q=-0.0 size=N/A time=00:10:52.31 bitrate=N/A speed=17.8x    frame=15878 fps=427 q=-0.0 size=N/A time=00:11:02.24 bitrate=N/A speed=17.8x    frame=16139 fps=428 q=-0.0 size=N/A time=00:11:13.13 bitrate=N/A speed=17.8x    frame=16392 fps=429 q=-0.0 size=N/A time=00:11:23.68 bitrate=N/A speed=17.9x    frame=16654 fps=430 q=-0.0 size=N/A time=00:11:34.61 bitrate=N/A speed=17.9x    frame=16895 fps=430 q=-0.0 size=N/A time=00:11:44.66 bitrate=N/A speed=  18x    frame=17134 fps=431 q=-0.0 size=N/A time=00:11:54.63 bitrate=N/A speed=  18x    frame=17345 fps=431 q=-0.0 size=N/A time=00:12:03.43 bitrate=N/A speed=  18x    frame=17552 fps=430 q=-0.0 size=N/A time=00:12:12.06 bitrate=N/A speed=17.9x    frame=17682 fps=428 q=-0.0 size=N/A time=00:12:17.48 bitrate=N/A speed=17.9x    frame=17845 fps=427 q=-0.0 size=N/A time=00:12:24.28 bitrate=N/A speed=17.8x    frame=18002 fps=425 q=-0.0 size=N/A time=00:12:30.83 bitrate=N/A speed=17.7x    frame=18159 fps=424 q=-0.0 size=N/A time=00:12:37.38 bitrate=N/A speed=17.7x    frame=18309 fps=422 q=-0.0 size=N/A time=00:12:43.63 bitrate=N/A speed=17.6x    frame=18465 fps=421 q=-0.0 size=N/A time=00:12:50.14 bitrate=N/A speed=17.5x    frame=18626 fps=419 q=-0.0 size=N/A time=00:12:56.85 bitrate=N/A speed=17.5x    frame=18780 fps=418 q=-0.0 size=N/A time=00:13:03.28 bitrate=N/A speed=17.4x    frame=18998 fps=418 q=-0.0 size=N/A time=00:13:12.37 bitrate=N/A speed=17.4x    frame=19158 fps=417 q=-0.0 size=N/A time=00:13:19.04 bitrate=N/A speed=17.4x    frame=19356 fps=416 q=-0.0 size=N/A time=00:13:27.30 bitrate=N/A speed=17.4x    frame=19575 fps=417 q=-0.0 size=N/A time=00:13:36.44 bitrate=N/A speed=17.4x    frame=19811 fps=417 q=-0.0 size=N/A time=00:13:46.28 bitrate=N/A speed=17.4x    frame=19988 fps=416 q=-0.0 size=N/A time=00:13:53.66 bitrate=N/A speed=17.4x    frame=20227 fps=417 q=-0.0 size=N/A time=00:14:03.63 bitrate=N/A speed=17.4x    frame=20479 fps=418 q=-0.0 size=N/A time=00:14:14.14 bitrate=N/A speed=17.4x    frame=20692 fps=417 q=-0.0 size=N/A time=00:14:23.02 bitrate=N/A speed=17.4x    frame=20920 fps=418 q=-0.0 size=N/A time=00:14:32.53 bitrate=N/A speed=17.4x    frame=21139 fps=418 q=-0.0 size=N/A time=00:14:41.67 bitrate=N/A speed=17.4x    frame=21355 fps=418 q=-0.0 size=N/A time=00:14:50.68 bitrate=N/A speed=17.4x    frame=21610 fps=419 q=-0.0 size=N/A time=00:15:01.31 bitrate=N/A speed=17.5x    frame=21818 fps=418 q=-0.0 size=N/A time=00:15:09.99 bitrate=N/A speed=17.5x    frame=22073 fps=419 q=-0.0 size=N/A time=00:15:20.62 bitrate=N/A speed=17.5x    frame=22292 fps=419 q=-0.0 size=N/A time=00:15:29.76 bitrate=N/A speed=17.5x    frame=22518 fps=419 q=-0.0 size=N/A time=00:15:39.18 bitrate=N/A speed=17.5x    frame=22797 fps=420 q=-0.0 size=N/A time=00:15:50.82 bitrate=N/A speed=17.5x    frame=23064 fps=421 q=-0.0 size=N/A time=00:16:01.96 bitrate=N/A speed=17.6x    frame=23314 fps=422 q=-0.0 size=N/A time=00:16:12.38 bitrate=N/A speed=17.6x    frame=23561 fps=423 q=-0.0 size=N/A time=00:16:22.69 bitrate=N/A speed=17.6x    frame=23834 fps=423 q=-0.0 size=N/A time=00:16:34.07 bitrate=N/A speed=17.7x    frame=24096 fps=424 q=-0.0 size=N/A time=00:16:45.00 bitrate=N/A speed=17.7x    frame=24367 fps=425 q=-0.0 size=N/A time=00:16:56.30 bitrate=N/A speed=17.7x    frame=24615 fps=426 q=-0.0 size=N/A time=00:17:06.65 bitrate=N/A speed=17.8x    frame=24818 fps=425 q=-0.0 size=N/A time=00:17:15.11 bitrate=N/A speed=17.7x    frame=25030 fps=425 q=-0.0 size=N/A time=00:17:23.95 bitrate=N/A speed=17.7x    frame=25212 fps=425 q=-0.0 size=N/A time=00:17:31.55 bitrate=N/A speed=17.7x    frame=25402 fps=424 q=-0.0 size=N/A time=00:17:39.47 bitrate=N/A speed=17.7x    frame=25586 fps=424 q=-0.0 size=N/A time=00:17:47.14 bitrate=N/A speed=17.7x    frame=25780 fps=423 q=-0.0 size=N/A time=00:17:55.24 bitrate=N/A speed=17.7x    frame=25988 fps=423 q=-0.0 size=N/A time=00:18:03.91 bitrate=N/A speed=17.6x    frame=26168 fps=422 q=-0.0 size=N/A time=00:18:11.42 bitrate=N/A speed=17.6x    frame=26369 fps=422 q=-0.0 size=N/A time=00:18:19.80 bitrate=N/A speed=17.6x    frame=26572 fps=422 q=-0.0 size=N/A time=00:18:28.27 bitrate=N/A speed=17.6x    frame=26758 fps=421 q=-0.0 size=N/A time=00:18:36.03 bitrate=N/A speed=17.6x    frame=26978 fps=422 q=-0.0 size=N/A time=00:18:45.20 bitrate=N/A speed=17.6x    frame=27177 fps=421 q=-0.0 size=N/A time=00:18:53.50 bitrate=N/A speed=17.6x    frame=27352 fps=421 q=-0.0 size=N/A time=00:19:00.80 bitrate=N/A speed=17.5x    frame=27523 fps=420 q=-0.0 size=N/A time=00:19:07.93 bitrate=N/A speed=17.5x    frame=27718 fps=420 q=-0.0 size=N/A time=00:19:16.07 bitrate=N/A speed=17.5x    frame=27892 fps=419 q=-0.0 size=N/A time=00:19:23.32 bitrate=N/A speed=17.5x    frame=28081 fps=418 q=-0.0 size=N/A time=00:19:31.21 bitrate=N/A speed=17.5x    frame=28278 fps=418 q=-0.0 size=N/A time=00:19:39.42 bitrate=N/A speed=17.4x    frame=28459 fps=418 q=-0.0 size=N/A time=00:19:46.97 bitrate=N/A speed=17.4x    frame=28635 fps=417 q=-0.0 size=N/A time=00:19:54.31 bitrate=N/A speed=17.4x    frame=28825 fps=417 q=-0.0 size=N/A time=00:20:02.24 bitrate=N/A speed=17.4x    frame=29020 fps=416 q=-0.0 size=N/A time=00:20:10.37 bitrate=N/A speed=17.4x    frame=29206 fps=416 q=-0.0 size=N/A time=00:20:18.13 bitrate=N/A speed=17.4x    frame=29400 fps=416 q=-0.0 size=N/A time=00:20:26.22 bitrate=N/A speed=17.3x    frame=29579 fps=415 q=-0.0 size=N/A time=00:20:33.69 bitrate=N/A speed=17.3x    frame=29755 fps=415 q=-0.0 size=N/A time=00:20:41.03 bitrate=N/A speed=17.3x    frame=29969 fps=415 q=-0.0 size=N/A time=00:20:49.95 bitrate=N/A speed=17.3x    frame=30204 fps=415 q=-0.0 size=N/A time=00:20:59.75 bitrate=N/A speed=17.3x    frame=30436 fps=415 q=-0.0 size=N/A time=00:21:09.43 bitrate=N/A speed=17.3x    frame=30664 fps=415 q=-0.0 size=N/A time=00:21:18.94 bitrate=N/A speed=17.3x    frame=30858 fps=415 q=-0.0 size=N/A time=00:21:27.03 bitrate=N/A speed=17.3x    frame=31059 fps=415 q=-0.0 size=N/A time=00:21:35.41 bitrate=N/A speed=17.3x    frame=31277 fps=415 q=-0.0 size=N/A time=00:21:44.51 bitrate=N/A speed=17.3x    frame=31467 fps=415 q=-0.0 size=N/A time=00:21:52.43 bitrate=N/A speed=17.3x    frame=31593 fps=413 q=-0.0 size=N/A time=00:21:57.69 bitrate=N/A speed=17.2x    frame=31786 fps=413 q=-0.0 size=N/A time=00:22:05.74 bitrate=N/A speed=17.2x    frame=31982 fps=413 q=-0.0 size=N/A time=00:22:13.91 bitrate=N/A speed=17.2x    frame=32153 fps=412 q=-0.0 size=N/A time=00:22:21.04 bitrate=N/A speed=17.2x    frame=32274 fps=411 q=-0.0 size=N/A time=00:22:26.09 bitrate=N/A speed=17.1x    frame=32419 fps=410 q=-0.0 size=N/A time=00:22:32.14 bitrate=N/A speed=17.1x    frame=32585 fps=410 q=-0.0 size=N/A time=00:22:39.06 bitrate=N/A speed=17.1x    frame=32813 fps=410 q=-0.0 size=N/A time=00:22:48.57 bitrate=N/A speed=17.1x    frame=33049 fps=410 q=-0.0 size=N/A time=00:22:58.41 bitrate=N/A speed=17.1x    frame=33304 fps=411 q=-0.0 size=N/A time=00:23:09.05 bitrate=N/A speed=17.1x    frame=33510 fps=411 q=-0.0 size=N/A time=00:23:17.64 bitrate=N/A speed=17.1x    frame=33752 fps=411 q=-0.0 size=N/A time=00:23:27.73 bitrate=N/A speed=17.1x    frame=34006 fps=412 q=-0.0 size=N/A time=00:23:38.33 bitrate=N/A speed=17.2x    frame=34237 fps=412 q=-0.0 size=N/A time=00:23:47.96 bitrate=N/A speed=17.2x    frame=34474 fps=412 q=-0.0 size=N/A time=00:23:57.85 bitrate=N/A speed=17.2x    [Parsed_psnr_10 @ 000002a792677e80] PSNR y:47.607318 u:49.355072 v:49.511741 average:48.134871 min:36.854025 max:inf
[out#0/null @ 000002a78fd54780] video:14903KiB audio:271252KiB subtitle:0KiB other streams:0KiB global headers:0KiB muxing overhead: unknown
frame=34683 fps=412 q=-0.0 Lsize=N/A time=00:24:06.57 bitrate=N/A speed=17.2x    
